<svg width="228" height="61" viewBox="0 0 228 61" fill="none" xmlns="http://www.w3.org/2000/svg">
<path opacity="0.5" d="M64.067 0.410504L48.388 55.9541C48.3082 56.2062 47.9893 56.2819 47.8033 56.1054L37.3064 46.1464L45.1724 18.3115C45.2522 18.0594 45.013 17.8325 44.7472 17.9081L15.4089 25.3711L4.96507 15.4625C4.77905 15.286 4.85878 14.9834 5.12452 14.9078L63.6418 0.00710022C63.9075 -0.0433252 64.1467 0.183589 64.067 0.410504Z" fill="#00B37E"/>
<path opacity="0.5" d="M37.3058 46.1459L33.2665 60.5171C33.1868 60.7693 32.8679 60.8449 32.6818 60.6684L0.101381 29.7828C-0.0846408 29.6063 -0.00491742 29.3038 0.260829 29.2282L15.4084 25.3706L37.3058 46.1459Z" fill="#00B37E"/>
<path d="M45.1711 18.311L37.305 46.1459L15.4076 25.3706L44.7459 17.9076C45.0117 17.832 45.2508 18.0589 45.1711 18.311Z" fill="#00B37E"/>
<path d="M85.6827 20.6927V38.8823H81.9473V20.6927H85.6827ZM97.5259 25.3651H100.786V38.4326C100.786 39.6652 100.512 40.7104 99.962 41.5683C99.4206 42.4344 98.6627 43.0882 97.6883 43.5296C96.7138 43.9794 95.5812 44.2042 94.2902 44.2042C93.7239 44.2042 93.1242 44.1293 92.4913 43.9794C91.8666 43.8295 91.267 43.5963 90.6923 43.2798C90.1259 42.9633 89.6512 42.5635 89.2681 42.0805L90.8547 39.9567C91.2711 40.4397 91.7542 40.8145 92.3039 41.081C92.8535 41.3559 93.4615 41.4933 94.1278 41.4933C94.7774 41.4933 95.3271 41.3725 95.7769 41.131C96.2266 40.8978 96.5722 40.5522 96.8138 40.0941C97.0553 39.6444 97.1761 39.0988 97.1761 38.4575V28.4883L97.5259 25.3651ZM88.4311 32.2861V32.0237C88.4311 30.991 88.556 30.054 88.8059 29.2128C89.0641 28.3633 89.4263 27.6346 89.8927 27.0266C90.3675 26.4186 90.9421 25.9481 91.6168 25.6149C92.2914 25.2818 93.0534 25.1152 93.9029 25.1152C94.8024 25.1152 95.5562 25.2818 96.1642 25.6149C96.7721 25.9481 97.2718 26.4228 97.6633 27.0391C98.0547 27.6471 98.3587 28.3675 98.5753 29.2004C98.8001 30.0249 98.975 30.9285 99.1 31.9113V32.486C98.975 33.4271 98.7876 34.3016 98.5378 35.1095C98.2879 35.9173 97.959 36.6253 97.5509 37.2332C97.1428 37.8329 96.6347 38.2993 96.0267 38.6324C95.4271 38.9656 94.7108 39.1322 93.878 39.1322C93.0451 39.1322 92.2914 38.9614 91.6168 38.62C90.9505 38.2785 90.38 37.7996 89.9052 37.1833C89.4305 36.567 89.0641 35.8424 88.8059 35.0095C88.556 34.1767 88.4311 33.2689 88.4311 32.2861ZM92.029 32.0237V32.2861C92.029 32.8441 92.0832 33.3646 92.1914 33.8477C92.2997 34.3307 92.4663 34.7597 92.6911 35.1345C92.9243 35.5009 93.2117 35.7882 93.5531 35.9965C93.9029 36.1963 94.3152 36.2963 94.7899 36.2963C95.4479 36.2963 95.9851 36.1589 96.4015 35.884C96.8179 35.6009 97.1303 35.2136 97.3385 34.7222C97.5467 34.2308 97.6675 33.6645 97.7008 33.0232V31.3866C97.6841 30.8619 97.6133 30.3913 97.4884 29.9749C97.3635 29.5502 97.1886 29.1879 96.9637 28.888C96.7388 28.5882 96.4473 28.355 96.0892 28.1884C95.7311 28.0219 95.3063 27.9386 94.8149 27.9386C94.3402 27.9386 93.9279 28.0468 93.5781 28.2634C93.2367 28.4716 92.9493 28.7589 92.7161 29.1254C92.4913 29.4919 92.3205 29.9249 92.2039 30.4247C92.0873 30.916 92.029 31.4491 92.029 32.0237ZM107.108 28.2509V38.8823H103.51V25.3651H106.883L107.108 28.2509ZM106.583 31.649H105.609C105.609 30.6495 105.738 29.75 105.996 28.9505C106.254 28.1426 106.616 27.4555 107.083 26.8892C107.549 26.3145 108.103 25.8773 108.744 25.5774C109.394 25.2693 110.119 25.1152 110.918 25.1152C111.551 25.1152 112.13 25.2068 112.655 25.39C113.179 25.5733 113.629 25.8648 114.004 26.2645C114.387 26.6643 114.679 27.1932 114.878 27.8511C115.087 28.5091 115.191 29.3128 115.191 30.2622V38.8823H111.568V30.2498C111.568 29.6501 111.485 29.1837 111.318 28.8506C111.151 28.5174 110.906 28.2842 110.581 28.151C110.264 28.0094 109.873 27.9386 109.407 27.9386C108.923 27.9386 108.503 28.0344 108.145 28.2259C107.795 28.4175 107.503 28.684 107.27 29.0255C107.045 29.3586 106.875 29.75 106.758 30.1998C106.641 30.6495 106.583 31.1326 106.583 31.649ZM121.724 25.3651V38.8823H118.114V25.3651H121.724ZM117.889 21.8421C117.889 21.3174 118.072 20.8843 118.439 20.5428C118.805 20.2013 119.297 20.0306 119.913 20.0306C120.521 20.0306 121.008 20.2013 121.375 20.5428C121.749 20.8843 121.937 21.3174 121.937 21.8421C121.937 22.3668 121.749 22.7999 121.375 23.1413C121.008 23.4828 120.521 23.6535 119.913 23.6535C119.297 23.6535 118.805 23.4828 118.439 23.1413C118.072 22.7999 117.889 22.3668 117.889 21.8421ZM131.319 25.3651V27.9136H123.449V25.3651H131.319ZM125.397 22.0295H128.995V34.8096C128.995 35.2011 129.045 35.5009 129.145 35.7091C129.254 35.9173 129.412 36.0631 129.62 36.1464C129.828 36.2213 130.091 36.2588 130.407 36.2588C130.632 36.2588 130.832 36.2505 131.007 36.2338C131.19 36.2088 131.344 36.1838 131.469 36.1589L131.481 38.8073C131.173 38.9073 130.84 38.9864 130.482 39.0447C130.124 39.103 129.728 39.1322 129.295 39.1322C128.504 39.1322 127.813 39.0031 127.221 38.7449C126.638 38.4784 126.189 38.0536 125.872 37.4706C125.556 36.8876 125.397 36.1214 125.397 35.1719V22.0295ZM139.589 39.1322C138.54 39.1322 137.599 38.9656 136.766 38.6324C135.933 38.291 135.225 37.8204 134.642 37.2208C134.067 36.6211 133.626 35.9257 133.318 35.1345C133.01 34.3349 132.856 33.4854 132.856 32.5859V32.0862C132.856 31.0618 133.001 30.1248 133.293 29.2753C133.584 28.4258 134.001 27.6887 134.542 27.0641C135.092 26.4394 135.758 25.9605 136.541 25.6274C137.324 25.2859 138.207 25.1152 139.189 25.1152C140.147 25.1152 140.997 25.2734 141.738 25.5899C142.479 25.9064 143.1 26.3562 143.599 26.9392C144.107 27.5222 144.491 28.2217 144.749 29.0379C145.007 29.8458 145.136 30.7453 145.136 31.7364V33.2355H134.392V30.8369H141.601V30.5621C141.601 30.0624 141.509 29.6168 141.326 29.2253C141.151 28.8256 140.884 28.5091 140.526 28.2759C140.168 28.0427 139.71 27.9261 139.152 27.9261C138.677 27.9261 138.269 28.0302 137.928 28.2384C137.586 28.4466 137.307 28.7381 137.091 29.1129C136.882 29.4877 136.724 29.9291 136.616 30.4371C136.516 30.9369 136.466 31.4865 136.466 32.0862V32.5859C136.466 33.1273 136.541 33.627 136.691 34.0851C136.849 34.5431 137.07 34.9387 137.353 35.2719C137.645 35.605 137.994 35.8632 138.402 36.0464C138.819 36.2297 139.289 36.3213 139.814 36.3213C140.464 36.3213 141.068 36.1963 141.626 35.9465C142.192 35.6883 142.679 35.301 143.087 34.7847L144.836 36.6836C144.553 37.0917 144.166 37.4831 143.674 37.8579C143.191 38.2327 142.608 38.5408 141.925 38.7824C141.242 39.0156 140.464 39.1322 139.589 39.1322ZM157.529 20.6927V38.8823H153.781V20.6927H157.529ZM164.775 28.4633V31.3866H156.505V28.4633H164.775ZM165.649 20.6927V23.6286H156.505V20.6927H165.649ZM166.749 32.2611V31.9987C166.749 31.0077 166.89 30.0957 167.173 29.2628C167.457 28.4216 167.869 27.6929 168.41 27.0766C168.952 26.4603 169.618 25.9814 170.409 25.6399C171.2 25.2901 172.108 25.1152 173.133 25.1152C174.157 25.1152 175.069 25.2901 175.868 25.6399C176.668 25.9814 177.338 26.4603 177.88 27.0766C178.429 27.6929 178.846 28.4216 179.129 29.2628C179.412 30.0957 179.554 31.0077 179.554 31.9987V32.2611C179.554 33.2439 179.412 34.1558 179.129 34.997C178.846 35.8299 178.429 36.5586 177.88 37.1833C177.338 37.7996 176.672 38.2785 175.881 38.62C175.09 38.9614 174.182 39.1322 173.157 39.1322C172.133 39.1322 171.221 38.9614 170.422 38.62C169.63 38.2785 168.96 37.7996 168.41 37.1833C167.869 36.5586 167.457 35.8299 167.173 34.997C166.89 34.1558 166.749 33.2439 166.749 32.2611ZM170.347 31.9987V32.2611C170.347 32.8274 170.397 33.3563 170.497 33.8477C170.596 34.3391 170.755 34.7722 170.971 35.1469C171.196 35.5134 171.488 35.8007 171.846 36.0089C172.204 36.2172 172.641 36.3213 173.157 36.3213C173.657 36.3213 174.086 36.2172 174.444 36.0089C174.802 35.8007 175.09 35.5134 175.306 35.1469C175.523 34.7722 175.681 34.3391 175.781 33.8477C175.889 33.3563 175.943 32.8274 175.943 32.2611V31.9987C175.943 31.4491 175.889 30.9327 175.781 30.4496C175.681 29.9583 175.519 29.5252 175.294 29.1504C175.077 28.7673 174.79 28.4674 174.432 28.2509C174.074 28.0344 173.641 27.9261 173.133 27.9261C172.624 27.9261 172.191 28.0344 171.833 28.2509C171.483 28.4674 171.196 28.7673 170.971 29.1504C170.755 29.5252 170.596 29.9583 170.497 30.4496C170.397 30.9327 170.347 31.4491 170.347 31.9987ZM185.363 28.3134V38.8823H181.765V25.3651H185.151L185.363 28.3134ZM189.436 25.2776L189.373 28.6132C189.198 28.5882 188.986 28.5674 188.736 28.5507C188.495 28.5257 188.274 28.5132 188.074 28.5132C187.566 28.5132 187.124 28.5799 186.75 28.7131C186.383 28.8381 186.075 29.0255 185.825 29.2753C185.584 29.5252 185.4 29.8292 185.276 30.1873C185.159 30.5454 185.092 30.9535 185.076 31.4116L184.351 31.1867C184.351 30.3122 184.439 29.5085 184.613 28.7756C184.788 28.0344 185.042 27.3889 185.375 26.8392C185.717 26.2895 186.133 25.8648 186.625 25.5649C187.116 25.2651 187.678 25.1152 188.311 25.1152C188.511 25.1152 188.715 25.1319 188.923 25.1652C189.132 25.1902 189.302 25.2276 189.436 25.2776ZM199.13 35.6467V25.3651H202.728V38.8823H199.342L199.13 35.6467ZM199.53 32.8732L200.592 32.8483C200.592 33.7477 200.488 34.5848 200.279 35.3593C200.071 36.1255 199.759 36.7918 199.342 37.3582C198.926 37.9162 198.401 38.3534 197.768 38.6699C197.135 38.9781 196.39 39.1322 195.532 39.1322C194.874 39.1322 194.266 39.0405 193.708 38.8573C193.159 38.6658 192.684 38.3701 192.284 37.9703C191.893 37.5622 191.584 37.0417 191.36 36.4087C191.143 35.7674 191.035 34.997 191.035 34.0975V25.3651H194.633V34.1225C194.633 34.5223 194.678 34.8596 194.77 35.1345C194.87 35.4093 195.007 35.6342 195.182 35.8091C195.357 35.984 195.561 36.1089 195.795 36.1838C196.036 36.2588 196.303 36.2963 196.594 36.2963C197.335 36.2963 197.918 36.1464 198.343 35.8465C198.776 35.5467 199.08 35.1386 199.255 34.6222C199.438 34.0975 199.53 33.5145 199.53 32.8732ZM209.074 28.1634V38.8823H205.464V25.3651H208.85L209.074 28.1634ZM208.575 31.649H207.575C207.575 30.7078 207.688 29.8417 207.913 29.0504C208.146 28.2509 208.483 27.5596 208.924 26.9766C209.374 26.3853 209.928 25.9272 210.586 25.6024C211.244 25.2776 212.006 25.1152 212.872 25.1152C213.472 25.1152 214.022 25.2068 214.521 25.39C215.021 25.5649 215.45 25.8439 215.808 26.2271C216.174 26.6018 216.458 27.0932 216.658 27.7012C216.857 28.3009 216.957 29.0213 216.957 29.8625V38.8823H213.359V30.2622C213.359 29.6459 213.276 29.1712 213.11 28.8381C212.943 28.5049 212.706 28.2717 212.397 28.1385C212.098 28.0052 211.735 27.9386 211.311 27.9386C210.844 27.9386 210.436 28.0344 210.086 28.2259C209.745 28.4175 209.462 28.684 209.237 29.0255C209.012 29.3586 208.845 29.75 208.737 30.1998C208.629 30.6495 208.575 31.1326 208.575 31.649ZM216.62 31.2367L215.333 31.3991C215.333 30.5163 215.442 29.6959 215.658 28.938C215.883 28.1801 216.212 27.5138 216.645 26.9392C217.086 26.3645 217.632 25.9189 218.282 25.6024C218.931 25.2776 219.681 25.1152 220.53 25.1152C221.18 25.1152 221.771 25.211 222.304 25.4025C222.837 25.5858 223.291 25.8814 223.666 26.2895C224.049 26.6893 224.341 27.214 224.541 27.8636C224.749 28.5132 224.853 29.3086 224.853 30.2498V38.8823H221.242V30.2498C221.242 29.6251 221.159 29.1504 220.993 28.8256C220.834 28.4924 220.601 28.2634 220.293 28.1385C219.993 28.0052 219.635 27.9386 219.219 27.9386C218.785 27.9386 218.407 28.026 218.082 28.2009C217.757 28.3675 217.486 28.6007 217.27 28.9005C217.053 29.2004 216.891 29.5502 216.782 29.9499C216.674 30.3414 216.62 30.7703 216.62 31.2367Z" fill="#E1E1E6"/>
</svg>
